<?xml version="1.0"?><svg width="451.57144" height="791.57135" xmlns="http://www.w3.org/2000/svg">
 <defs>
  <linearGradient id="svg_1">
   <stop offset="0" stop-opacity="0.996094" stop-color="#435400"/>
   <stop offset="1" stop-opacity="0.996094" stop-color="#90ce00"/>
  </linearGradient>
 </defs>
 <metadata id="metadata3890">image/svg+xml</metadata>
 <g>
  <title>Layer 1</title>
  <g id="layer1">
   <path fill="url(#svg_1)" fill-rule="nonzero" id="path3203"/>
   <g fill="#88aa00" id="g3258">
    <g fill="#88aa00" id="g3113" transform="matrix(2.07437, 0.831809, -0.60302, 1.4145, 501.369, -435.312)">
     <path fill="url(#svg_1)" id="path3115" d="m32.611938,403.971649c0,0 -2.678558,-4.464294 -9.464294,-3.928558c-6.785706,0.535706 -7.321442,1.071411 -7.321442,1.071411c0,0 9.642883,0.535736 16.785736,2.857147z"/>
     <path fill="url(#svg_1)" id="path3117" d="m32.564148,405.136902c0,0 -8.571442,0 -11.25,4.107147c-2.678558,4.107086 -3.571442,5.714264 -3.571442,5.714264c0,0 10.535706,-5.178558 14.821442,-9.821411z"/>
     <path fill="url(#svg_1)" id="path3119" d="m33.181885,405.542206c0,0 -6.964294,3.75 -5,10.535736c1.964294,6.785706 2.142853,7.321411 2.142853,7.321411c0,0 2.5,-8.392883 2.857147,-17.857147z"/>
     <path fill="url(#svg_1)" id="path3121" d="m33.380127,405.112854c0,0 -0.178558,7.5 3.928558,11.25c4.107147,3.75 5.714294,4.642822 5.714294,4.642822c0,0 -4.107147,-12.142822 -9.642853,-15.892822z"/>
    </g>
    <path fill="url(#svg_1)" fill-rule="nonzero" d="m303.583557,319.127197c-6.123291,-2.950989 2.572998,-13.529724 5.261353,-27.804138c2.076904,-11.027954 12.146973,-103.834045 12.250366,-112.899628c0.031006,-2.687134 1.34668,-1.333649 3.928955,4.040619c3.949463,8.219574 10.785034,17.172607 13.111206,17.172607c1.494873,0 -0.35144,-12.182373 -3.312134,-21.853638c-1.128418,-3.68576 -1.583008,-7.170013 -1.010132,-7.742798c0.572632,-0.572754 5.904541,-0.433777 11.848633,0.308868l10.807129,1.35025l-0.597778,15.483887c-1.31543,34.075531 -16.62207,127.063049 -17.830811,130.88916c-1.794189,5.679382 -27.26123,-1.930786 -34.456787,1.05481z" id="path3171"/>
    <path fill="url(#svg_1)" fill-rule="nonzero" d="m325.259949,159.804047c-1.486694,-3.265961 -1.214355,-6.448944 1.006958,-11.765045c1.674683,-4.008301 2.541992,-8.872955 1.927002,-10.810333c-1.133911,-3.572876 6.428589,-101.337944 7.957153,-102.86657c1.57373,-1.573608 12.572021,7.535858 19.909058,16.489685l7.350586,8.970459l-1.940308,24.955414c-1.067139,13.725464 -2.013306,33.592224 -2.102661,44.148308c-0.088989,10.556091 -0.791748,22.669617 -1.561035,26.918945l-1.398804,7.726044l-14.554932,0.355164c-13.24353,0.323181 -14.738647,-0.048279 -16.593018,-4.12207z" id="path3173"/>
    <path fill="url(#svg_1)" fill-rule="nonzero" d="m310.094299,180.257385c0.070068,-5.464996 0.109985,-5.86499 0.660034,-6.983002c1.280029,-2.587982 4.140015,-4.48999 8.26001,-5.475983c2.23999,-0.539001 4.669922,-0.882019 4.669922,-0.662018c0,0.703003 -4.039917,7.130005 -6.73999,10.733002c-2.039917,2.71701 -5.549927,6.951019 -6.380005,7.69101l-0.549927,0.493011l0.079956,-5.796021l0,0z" id="path3175"/>
    <path fill="url(#svg_1)" fill-rule="nonzero" d="m334.034363,191.279388c-2.73999,-3.410004 -5.920044,-7.858978 -6.690063,-9.390991c-0.469971,-0.915009 -1.039917,-2.391998 -1.27002,-3.28299c-0.529907,-2.052002 -0.539917,-6.032013 -0.01001,-8.568024c0.220093,-1.039978 0.390015,-1.975983 0.390015,-2.079987c0.01001,-0.513 0.530029,-0.057007 1.340088,1.167999c2.26001,3.408997 4.289917,8.351013 5.73999,14.019989c0.76001,2.97702 1.859985,8.97702 1.719971,9.344025c-0.050049,0.109985 -0.589966,-0.434021 -1.219971,-1.210022l0,0z" id="path3177"/>
    <path fill="url(#svg_1)" fill-rule="nonzero" d="m294.764343,165.510406l-2.27002,-0.141022l3.709961,-1.703979c2.040039,-0.937012 4.310059,-1.834015 5.050049,-1.992004c1.839966,-0.39502 7.540039,-0.115997 10.559937,0.516998c3.060059,0.643005 8.330078,2.104004 8.330078,2.309998c0,0.233002 -5.050049,0.725006 -10.22998,0.997009c-4.75,0.248993 -11.27002,0.255005 -15.150024,0.013l0,0l0,0z" id="path3179"/>
    <path fill="url(#svg_1)" fill-rule="nonzero" d="m318.505432,157.61969c-3.145142,-1.903687 -6.609741,-3.835907 -10.859131,-6.056427c-1.805664,-0.943512 -3.151978,-1.717712 -2.991821,-1.720459c0.538208,-0.009003 5.397583,1.770081 7.548828,2.764008c2.780396,1.284546 5.932373,3.352875 7.820923,5.132263c0.831421,0.783356 1.397949,1.420868 1.259155,1.416687c-0.138916,-0.003998 -1.388916,-0.695374 -2.777954,-1.536072z" id="path3181"/>
    <path fill="url(#svg_1)" fill-rule="nonzero" d="m288.645935,468.103271c-1.666748,-0.26123 -4.62146,-0.873657 -6.56604,-1.361023l-3.5354,-0.886108l-0.733154,-2.896179c-0.594238,-2.347473 -0.625488,-3.59137 -0.165161,-6.565979c0.3125,-2.018372 0.825806,-5.601746 1.140625,-7.962952c4.222168,-31.657898 7.123291,-49.310059 15.481323,-94.196716c5.09082,-27.34021 5.969238,-31.43396 6.921021,-32.254028c0.949341,-0.817993 1.644653,-0.898804 5.385132,-0.625549c2.362305,0.172546 8.76123,0.53595 14.220093,0.807556c5.45874,0.271606 11.114014,0.748901 12.567505,1.060547l2.642334,0.566711l-0.268066,4.36322c-0.147461,2.39978 -0.867188,6.859253 -1.599243,9.909912c-0.732056,3.05072 -9.514893,43.424316 -9.914307,46.068359c-2.556641,16.926208 -12.694458,81.727112 -13.227539,82.059814c-2.714355,1.693726 -16.317139,2.857727 -22.349121,1.912415z" id="path3187"/>
    <path fill="url(#svg_1)" fill-rule="nonzero" d="m272.664368,612.219543l-7.395142,-0.787415l0.680786,-1.62915c2.757446,-6.599792 1.542236,-16.055481 -3.041992,-23.668274l-1.74585,-2.899231l0.547607,-4.393982c0.301025,-2.416626 0.711426,-4.575256 0.911743,-4.796936c0.200317,-0.221619 0.796631,0.734802 1.325073,2.125427c0.52832,1.390625 1.16687,2.594727 1.418823,2.675842c0.251953,0.081116 2.262695,-4.170959 4.468506,-9.449036c4.682861,-11.205994 5.192383,-13.907227 3.471924,-18.405151c-0.578003,-1.511292 -0.978638,-2.820251 -0.890137,-2.908752c0.089111,-0.088501 2.109009,0.752014 4.490112,1.867798c4.055908,1.900696 17.862061,7.50238 20.512329,8.322754c1.066772,0.330139 1.168701,0.59668 0.942749,2.463806c-5.03125,41.560303 -6.093994,49.091553 -7.046387,49.937012c-2.410645,2.139526 -8.405029,2.63623 -18.650146,1.545288l0,0z" id="path3189"/>
    <path fill="url(#svg_1)" fill-rule="nonzero" d="m268.190369,527.833313c0,-0.975525 6.523682,-51.044189 6.84021,-52.497742c0.13501,-0.619995 0.980835,-1.529114 1.879639,-2.020325c2.668823,-1.458496 16.240845,-0.940002 25.703735,0.981995l2.856445,0.580139l-4.714233,5.085815c-5.57312,6.01239 -8.814087,10.016541 -13.110718,16.197571c-3.929443,5.653015 -8.848511,13.613892 -8.848511,14.320251c0,1.279968 19.135742,-8.419617 25.384888,-12.867065l2.403687,-1.710815l-0.334473,2.906738c-0.183838,1.598694 -1.043823,8.588806 -1.911011,15.53363l-1.576538,12.626892l-4.280884,-0.252502c-2.354492,-0.138916 -8.826538,-0.244446 -14.382324,-0.234497c-8.099365,0.014465 -10.645264,0.189697 -12.844849,0.88385c-3.177856,1.002991 -3.065063,0.98584 -3.065063,0.466064z" id="path3191"/>
    <path fill="url(#svg_1)" fill-rule="nonzero" d="m295.222473,548.057068c-3.223145,-3.460083 -4.740112,-4.66272 -7.57605,-6.006226c-4.155396,-1.968567 -9.789307,-3.486755 -16.014038,-4.315552c-3.626831,-0.482849 -4.452271,-0.75238 -4.452271,-1.453857c0,-0.962219 1.601563,-1.260742 15.909912,-2.965942c12.628418,-1.504944 18.94043,-1.833008 18.94043,-0.984436c0,0.992004 -2.501343,19.78595 -2.652832,19.931885c-0.069092,0.066284 -1.938599,-1.826355 -4.155151,-4.205872z" id="path3193"/>
    <path fill="url(#svg_1)" fill-rule="nonzero" d="m321.476379,511.725281c-0.555298,-1.320374 -0.956909,-27.907715 -0.510742,-33.814087l0.376343,-4.983948l2.785645,3.030457c3.740845,4.069702 6.251343,9.345642 6.562622,13.791504c0.303589,4.334045 -0.778931,7.621338 -5.391235,16.372498c-2.658081,5.043091 -3.524292,6.312988 -3.822632,5.603577z" id="path3195"/>
    <path fill="url(#svg_1)" fill-rule="nonzero" d="m354.810974,495.710693c-0.833374,-0.638123 -4.356323,-3.278137 -7.828735,-5.866638c-6.967041,-5.193726 -14.678345,-11.728394 -18.182739,-15.408203l-2.272827,-2.386719l2.020264,0.355774c3.255493,0.573242 11.347778,3.766479 14.89978,5.879517c3.854004,2.292664 5.412109,3.59259 7.20752,6.013428c1.486816,2.0047 6.571533,12.633301 6.026245,12.596802c-0.194946,-0.013123 -1.036133,-0.545837 -1.869507,-1.18396z" id="path3197"/>
    <path fill="url(#svg_1)" fill-rule="nonzero" d="m328.804382,463.421387c0,-0.383972 5.779907,-2.274963 8.829956,-2.891968c3.880005,-0.780029 10.150024,-0.335999 16.359985,1.156006l4.73999,1.139954l-13.069946,0.040039c-7.190063,0.021973 -13.930054,0.203003 -14.970093,0.401978c-1.039917,0.198975 -1.889893,0.268005 -1.889893,0.153992l0,0z" id="path3199"/>
    <path fill="url(#svg_1)" fill-rule="nonzero" d="m287.82428,502.095398c1.080078,-2.004028 7.390015,-10.598022 10.609985,-14.440002c5.400024,-6.447021 14.800049,-14.981018 16.5,-14.981018c1.050049,0 -1.97998,8.23999 -4.72998,12.880005c-2.559937,4.301025 -4.449951,6.552002 -7.380005,8.788025c-2.48999,1.895996 -14.25,8.636963 -15.069946,8.636963c-0.219971,0 -0.190063,-0.397949 0.069946,-0.883972l0,0z" id="path3201"/>
    <path fill="url(#svg_1)" fill-rule="nonzero" d="m230.309631,567.292114c0,-0.185303 1.678101,-2.855896 3.729248,-5.934631c5.65564,-8.489441 12.430664,-15.881836 17.610107,-19.214783c1.304321,-0.839294 1.389038,-0.840759 1.389038,-0.024719c0,1.765869 -1.629639,7.078918 -3.010132,9.813354c-2.174683,4.307434 -6.060547,7.899597 -13.020264,12.03595c-6.22168,3.697632 -6.697998,3.934143 -6.697998,3.324829z" id="path3205"/>
    <path fill="url(#svg_1)" fill-rule="nonzero" d="m228.875916,541.433594c-6.616333,-0.406799 -6.933838,-0.709229 -7.362305,-7.013245c-0.165161,-2.430725 -0.510254,-6.37384 -0.766846,-8.762512c-0.256592,-2.388672 -1.657227,-19.827271 -3.112793,-38.75238l-2.64624,-34.409302l2.626343,-5.530823c2.389282,-5.031799 3.431763,-7.877991 4.318726,-11.792542l0.314819,-1.388916l12.049072,0c6.627075,0 12.703857,0.13092 13.50415,0.290955l1.454956,0.291016l3.447876,47.817505c1.89624,26.299622 3.571655,49.091187 3.723022,50.647888l0.275269,2.830383l-2.968384,1.6651c-1.632568,0.915771 -3.657959,2.173157 -4.50061,2.794128c-1.355713,0.998962 -2.316162,1.158142 -8.333862,1.381409c-3.740845,0.138794 -9.151245,0.10791 -12.023193,-0.068665l0,0z" id="path3207"/>
    <path fill="url(#svg_1)" fill-rule="nonzero" d="m230.057068,650.093262c-0.277832,-0.214111 -0.947998,-1.259216 -1.489502,-2.322388c-0.541382,-1.063171 -1.596313,-2.249451 -2.344238,-2.63623l-1.359619,-0.703125l-0.355835,-8.728027c-1.445557,-35.459595 -3.037598,-87.161926 -2.704956,-87.845581c0.716675,-1.4729 3.530884,-2.003418 12.259888,-2.311035l8.551514,-0.301331l-1.078003,1.513855c-0.592896,0.832642 -1.459351,1.830383 -1.925293,2.217224c-1.195435,0.992065 -6.227295,7.671021 -8.949097,11.878784c-2.560547,3.958069 -7.42334,12.748962 -7.42334,13.419617c0,0.635498 10.399048,-4.686829 16.606323,-8.499329c8.105591,-4.978333 11.848999,-9.113586 14.427124,-15.937134c1.02002,-2.699951 1.237183,-2.98291 1.464111,-1.907532c0.503052,2.383911 1.3302,24.39032 2.857056,76.013977c0.279297,9.444946 0.635498,18.713196 0.791382,20.59613l0.283447,3.423523l-2.43103,1.122192c-2.266113,1.045959 -3.253906,1.131409 -14.552979,1.258911c-6.667114,0.075195 -12.349121,-0.038391 -12.626953,-0.252502l0,0z" id="path3209"/>
    <path fill="url(#svg_1)" fill-rule="nonzero" d="m264.273132,568.268066c-1.72583,-5.407288 -3.560059,-12.855408 -4.352295,-17.671753c-0.993652,-6.041748 -1.3573,-9.231262 -1.052368,-9.231262c0.851807,0 7.018188,4.416138 8.57959,6.144409c4.507446,4.989258 4.719116,8.517578 1.035034,17.253784c-3.216431,7.627319 -2.961914,7.415405 -4.209961,3.504822l0,0z" id="path3211"/>
    <path fill="url(#svg_1)" fill-rule="nonzero" d="m288.645935,551.656189c-7.984741,-3.193176 -24.755615,-11.210327 -24.333496,-11.632324c0.37854,-0.378601 8.996948,0.838074 13.698608,1.933777c5.305298,1.23645 10.003662,3.27179 12.211182,5.289917c2.401367,2.195374 6.94104,7.236206 6.709717,7.450562c-0.112671,0.104431 -3.841309,-1.264465 -8.286011,-3.041931z" id="path3213"/>
    <path fill="url(#svg_1)" fill-rule="nonzero" d="m268.201477,531.586731c3.126587,-1.81604 15.655029,-3.349426 20.191895,-2.471375l2.272949,0.439819l-4.040649,0.375366c-2.222412,0.206421 -6.654419,0.713013 -9.848999,1.125671c-3.19458,0.41272 -6.717529,0.867371 -7.828735,1.010376c-1.976685,0.254333 -1.992798,0.244019 -0.74646,-0.479858z" id="path3215"/>
    <path fill="url(#svg_1)" fill-rule="nonzero" d="m263.640808,753.118286c0,-0.763916 -0.368408,-14.003235 -0.813965,-29.420715c-0.445435,-15.417419 -0.876953,-36.782166 -0.95874,-47.477173c-0.082031,-10.694946 -0.348755,-20.240906 -0.59314,-21.213196c-0.41748,-1.660278 -0.592041,-1.783081 -2.872681,-2.020325l-2.428223,-0.252502l2.446289,-0.887207c4.472534,-1.622131 4.213623,-0.60498 3.638916,-14.296021c-0.474365,-11.304443 -0.443848,-12.320862 0.469482,-15.626404c0.967896,-3.503296 0.99231,-3.535217 2.687744,-3.500122c2.006348,0.041626 16.429443,1.103821 21.10022,1.554016l3.226563,0.310974l-0.328735,4.676697c-0.180786,2.572144 -1.12561,8.963074 -2.099487,14.202087c-2.075195,11.162903 -1.630371,7.991943 -9.334229,66.538208c-3.655151,27.776978 -6.292358,46.205383 -6.678833,46.67157c-0.928467,1.119568 -3.61853,2.129089 -5.67334,2.129089c-1.608521,0 -1.784424,-0.136597 -1.787842,-1.388977z" id="path3217"/>
    <path fill="url(#svg_1)" fill-rule="nonzero" d="m231.57428,757.22937c-4.619995,-1.049988 -5.209961,-1.33197 -5.529907,-2.647949c-0.52002,-2.124023 -1.190063,-29.904053 -1.590088,-65.280029l-0.369995,-32.627991l1.390015,-0.349976c0.830078,-0.208008 1.680054,-0.111023 2.109985,0.238953c0.51001,0.424988 0.710083,0.43103 0.710083,0.022034c0,-0.859985 29.589966,-0.796021 30.139893,0.063965c0.230103,0.348022 0.440063,8.927002 0.480103,19.067017c0.029907,10.138977 0.419922,30.822021 0.869995,45.961975c1.099976,37.024048 1.179932,33.624023 -0.810059,34.710999c-1.429932,0.782043 -3.219971,0.90802 -14.02002,0.984009c-6.799927,0.046997 -12.829956,-0.016968 -13.380005,-0.143005l0,0l0,0z" id="path3219"/>
    <path fill="url(#svg_1)" fill-rule="nonzero" d="m223.743591,650.315002c-4.055054,-2.650757 -19.058105,-9.697266 -36.618042,-17.198486c-18.826355,-8.042175 -24.023865,-10.375793 -23.187683,-10.41095c0.876648,-0.036926 24.527893,8.90387 32.02655,12.10675c10.142334,4.332153 28.944336,13.093506 29.713257,13.845947c0.369263,0.361328 0.59668,1.216187 0.505127,1.899719l-0.166382,1.242737l-2.272827,-1.485718z" id="path3221"/>
    <path fill="url(#svg_1)" fill-rule="nonzero" d="m219.197937,627.512573c1.646973,-1.741211 1.779297,-1.793579 1.936768,-0.76593c0.208008,1.3573 -0.239502,1.823303 -2.189331,2.279968l-1.515259,0.354919l1.767822,-1.868958z" id="path3223"/>
    <path fill="url(#svg_1)" fill-rule="nonzero" d="m262.254333,600.402405c-1.290039,-3.411011 -1.640015,-5.083008 -1.619995,-7.822998l0.02002,-3.484985l0.959961,1.767944c1.430054,2.663025 2.609985,8.044006 2.440063,11.132019l-0.160034,2.746033l-1.640015,-4.338013l0,0z" id="path3225"/>
    <path fill="url(#svg_1)" fill-rule="nonzero" d="m262.184265,610.974426c-0.369995,-0.19104 -1.219971,-1.272034 -1.269897,-1.613037c-0.02002,-0.117981 -0.050049,-1.037964 -0.070068,-2.044983l-0.030029,-1.830994l0.5,1.489014c0.5,1.480957 1.26001,3.964966 1.26001,4.093994c0,0.094971 -0.049927,0.08197 -0.390015,-0.093994l0,0z" id="path3227"/>
    <path fill="url(#svg_1)" fill-rule="nonzero" d="m218.964294,593.711426l-1.27002,-0.670044l1.27002,-0.007996c0.700073,-0.005005 1.280029,-0.005005 1.280029,0c0.02002,0.026001 0.050049,1.348999 0.030029,1.348999c-0.02002,-0.000977 -0.599976,-0.302979 -1.310059,-0.670959l0,0l0,0z" id="path3229"/>
    <path fill="url(#svg_1)" fill-rule="nonzero" d="m204.644348,460.602417c-0.060059,-0.81604 -0.109985,-3.813049 -0.099976,-6.661011l0.01001,-5.177002l0.339966,-1.262024c0.599976,-2.201965 2.160034,-5.026001 4.150024,-7.484009c1.089966,-1.35498 4.069946,-4.30896 5.659912,-5.612c1.550049,-1.268005 4.560059,-3.505005 4.720093,-3.506958c0.069946,-0.001038 0.079956,0.597961 0.039917,1.419006c-0.329956,5.758972 -3.939941,14.157959 -10.049927,23.390991c-1.5,2.258972 -4.440063,6.377014 -4.560059,6.377014c-0.059937,0 -0.150024,-0.66803 -0.209961,-1.484009l0,0z" id="path3231"/>
    <path fill="url(#svg_1)" fill-rule="nonzero" d="m178.855774,445.197693c0.306152,-0.329895 2.266479,-2.474854 4.356445,-4.766663c4.160767,-4.562195 5.495605,-5.905884 6.738525,-6.783325c3.646729,-2.57428 7.811035,-4.017883 13.447632,-4.66156c2.03064,-0.231934 7.035645,-0.197449 9.419189,0.064819c3.074219,0.338257 3.14856,0.134216 -0.799072,2.190369c-8.128906,4.233765 -17.006226,8.218567 -26.802856,12.031067c-3.328491,1.295288 -6.648071,2.525024 -6.816162,2.525024c-0.055054,0 0.150269,-0.269897 0.456299,-0.599731l0,0z" id="path3233"/>
    <path fill="url(#svg_1)" fill-rule="nonzero" d="m213.184265,425.635803c-8.513794,-0.856323 -18.473145,-2.692566 -30.716797,-5.66333c-4.102661,-0.995483 -7.699707,-1.923584 -7.539063,-1.94519c1.00415,-0.135071 4.126953,-0.490479 8.014404,-0.912048c7.346313,-0.796631 9.6427,-0.739746 14.015869,0.347229c4.989502,1.240112 10.801636,3.913391 16.541138,7.60791c1.096802,0.705933 1.095947,0.707397 -0.315552,0.56543z" id="path3235"/>
    <path fill="url(#svg_1)" fill-rule="nonzero" d="m220.754333,421.932373c-0.180054,-0.242981 -0.690063,-0.953003 -1.140015,-1.578003c-3.380005,-4.763977 -7.719971,-9.85498 -14.369995,-16.848999c-0.930054,-0.97699 -1.650024,-1.776001 -1.599976,-1.776001c0.25,0 8.22998,5.359009 9.699951,6.52301c0.5,0.39502 1.540039,1.348022 2.310059,2.117004c3.319946,3.312988 4.929932,6.348999 5.369995,10.114014c0.079956,0.628967 0.119995,1.312012 0.089966,1.518005l-0.040039,0.372986l-0.329956,-0.442017l0.01001,0z" id="path3237"/>
    <path fill="url(#svg_1)" fill-rule="nonzero" d="m219.624084,426.141052c-0.590332,-0.454712 -1.635864,-1.217834 -2.323608,-1.695862c-1.011963,-0.703491 -1.333984,-1.007813 -1.688965,-1.596191c-0.805176,-1.334473 -1.554565,-3.544128 -1.723999,-5.083252c-0.091064,-0.82843 -0.280884,-1.013672 1.89209,1.847351c2.57251,3.387024 5.303833,7.449951 4.949341,7.362488c-0.01709,-0.004028 -0.514526,-0.379822 -1.104858,-0.834534z" id="path3239"/>
    <path fill="url(#svg_1)" fill-rule="nonzero" d="m223.864319,421.523376c0,-4.282959 -1.800049,-9.091003 -4.73999,-12.626953c-4.140015,-4.999023 -5.02002,-9.252014 -7.069946,-34.101013c-1.280029,-15.614014 -2.330078,-33.91803 -2.330078,-40.676025c0,-14.234985 0.680054,-14.703003 21.400024,-14.748962l12.300049,-0.028015l2.589966,38.890991c4.109985,61.878967 4.099976,66.028015 -0.089966,68.27301c-1.990112,1.062988 -7.76001,1.932983 -12.840088,1.932983c-9.150024,0 -9.219971,-0.052002 -9.219971,-6.916016l0,0z" id="path3241"/>
    <path fill="url(#svg_1)" fill-rule="nonzero" d="m207.701111,314.466064c0,-0.76178 1.42334,-4.137451 3.162964,-7.501465c2.600586,-5.029053 3.130127,-13.810974 2.97876,-49.397156c-0.101196,-23.804413 0.550537,-43.280762 1.448486,-43.280762c0.897827,0 7.512329,3.863831 14.698853,8.586304l13.066284,8.586304l0.546875,40.911163l0.546997,40.911163l-8.851318,0c-4.868164,0 -13.069214,0.578186 -18.224609,1.28479c-5.155273,0.706604 -9.373291,0.661438 -9.373291,-0.100342z" id="path3243"/>
    <path fill="url(#svg_1)" fill-rule="nonzero" d="m130.77124,667.65387c0.157043,-0.555603 0.964722,-4.078491 1.794739,-7.828674c2.614014,-11.810181 5.842285,-21.752197 8.660217,-26.670715c1.120178,-1.955139 2.361633,-3.213745 4.592163,-4.655334c4.634888,-2.995728 12.042969,-5.518127 12.042969,-4.100525c0,0.31134 -1.160706,3.693481 -2.579407,7.51593c-3.065308,8.259399 -7.213806,16.716187 -10.594299,21.597168c-2.693542,3.888977 -14.37323,15.758179 -13.916382,14.142151z" id="path3245"/>
    <path fill="url(#svg_1)" fill-rule="nonzero" d="m88.160828,653.091248c0,-0.496094 14.415283,-12.162659 17.42511,-14.102478c5.05719,-3.259277 13.538879,-7.4104 21.718323,-10.629395c7.278198,-2.864319 18.004028,-6.414917 19.378601,-6.414917c2.263184,0 -18.805359,11.715332 -41.220215,22.920776c-16.010437,8.003845 -17.301819,8.617798 -17.301819,8.226013z" id="path3247"/>
    <path fill="url(#svg_1)" fill-rule="nonzero" d="m102.737244,616.531006c1.299866,-0.482117 5.351807,-1.650024 8.523132,-2.456787c5.982056,-1.521729 8.836182,-2.07074 12.437561,-2.392639c3.30304,-0.295227 8.080811,-0.308899 11.869263,-0.033875c3.294312,0.239075 7.75415,0.786804 10.953796,1.345276c1.054077,0.18396 0.953918,0.210815 -0.978516,0.26239c-7.480408,0.199524 -22.821167,1.365723 -38.239136,2.906921c-2.593079,0.259216 -4.738098,0.469299 -4.766663,0.466858c-0.028625,-0.002014 0.061707,-0.046631 0.200562,-0.098145z" id="path3249"/>
    <path fill="url(#svg_1)" fill-rule="nonzero" d="m208.194275,622.259399c-7.679932,-0.507019 -19.26001,-1.875977 -26.769897,-3.164001c-2.840088,-0.487976 -5.630005,-0.957031 -6.180054,-1.041016l-1.01001,-0.153992l0.880005,-0.218018c1.589966,-0.391968 11.099976,-0.526978 14.98999,-0.211975c4.099976,0.330994 9,1.010986 13.040039,1.809998c3.140015,0.620972 11.569946,2.651978 12.419922,2.991028c0.730103,0.295959 -2.799927,0.289978 -7.369995,-0.012024l0,0z" id="path3251"/>
    <path fill="url(#svg_1)" fill-rule="nonzero" d="m170.323303,594.003906c-0.014038,-1.773621 7.528564,-36.130249 8.053955,-36.687622c0.239502,-0.254028 0.984253,5.577942 1.253906,9.818237c0.455444,7.163025 -0.614136,11.835999 -4.416016,19.293213c-2.129028,4.176025 -4.885254,8.44458 -4.891846,7.576172z" id="path3253"/>
    <path fill="url(#svg_1)" fill-rule="nonzero" d="m161.58844,601.641724c-2.203918,-2.516846 -9.002686,-9.712463 -13.599487,-14.393188c-2.216614,-2.25708 -3.946594,-4.10376 -3.844421,-4.10376c0.102173,0 2.083496,1.442871 4.403015,3.20636c5.143616,3.910583 9.681091,8.35498 11.831299,11.588501c1.575195,2.368713 3.02179,5.084351 2.817383,5.288818c-0.063965,0.064026 -0.787598,-0.649963 -1.607788,-1.586731l0,0z" id="path3255"/>
   </g>
  </g>
 </g>
</svg>